<svg data-v-d3f97b9e="" xmlns="http://www.w3.org/2000/svg" viewBox="0 0 469 107"><!----><!----><!----><g data-v-d3f97b9e="" id="ab389d87-1d92-4a68-8531-53b7277c2a1a" fill="#000000" transform="matrix(5.097706247069396,0,0,5.097706247069396,119.19664730755139,13.397288076082951)"><path d="M5.57 13.58L0.53 13.58L0.53 13.05L0.53 13.05Q1.08 13.03 1.41 12.96L1.41 12.96L1.41 12.96Q1.74 12.89 1.91 12.73L1.91 12.73L1.91 12.73Q2.09 12.56 2.15 12.25L2.15 12.25L2.15 12.25Q2.21 11.94 2.21 11.45L2.21 11.45L2.21 4.93L2.21 4.93Q2.21 4.44 2.16 4.14L2.16 4.14L2.16 4.14Q2.11 3.84 1.97 3.66L1.97 3.66L1.97 3.66Q1.82 3.49 1.54 3.42L1.54 3.42L1.54 3.42Q1.26 3.36 0.81 3.33L0.81 3.33L0.81 2.80L5.00 2.80L5.00 2.80Q6.89 2.80 7.94 3.47L7.94 3.47L7.94 3.47Q8.99 4.14 8.99 5.36L8.99 5.36L8.99 5.36Q8.99 6.29 8.41 6.87L8.41 6.87L8.41 6.87Q7.83 7.46 6.57 7.84L6.57 7.84L6.57 7.90L6.57 7.90Q7 7.94 7.32 7.99L7.32 7.99L7.32 7.99Q7.64 8.05 7.90 8.13L7.90 8.13L7.90 8.13Q8.15 8.20 8.37 8.32L8.37 8.32L8.37 8.32Q8.58 8.43 8.79 8.57L8.79 8.57L8.79 8.57Q10.04 9.45 10.04 10.78L10.04 10.78L10.04 10.78Q10.04 11.52 9.63 12.16L9.63 12.16L9.63 12.16Q9.21 12.80 8.47 13.16L8.47 13.16L8.47 13.16Q8.23 13.29 7.98 13.36L7.98 13.36L7.98 13.36Q7.73 13.44 7.39 13.49L7.39 13.49L7.39 13.49Q7.06 13.54 6.62 13.56L6.62 13.56L6.62 13.56Q6.17 13.58 5.57 13.58L5.57 13.58ZM5.61 12.98L5.61 12.98L5.61 12.98Q8.15 12.98 8.15 10.81L8.15 10.81L8.15 10.81Q8.15 9.23 6.85 8.60L6.85 8.60L6.85 8.60Q6.62 8.50 6.41 8.43L6.41 8.43L6.41 8.43Q6.20 8.36 5.92 8.32L5.92 8.32L5.92 8.32Q5.64 8.29 5.26 8.27L5.26 8.27L5.26 8.27Q4.87 8.26 4.31 8.26L4.31 8.26L3.68 8.26L3.68 11.38L3.68 11.38Q3.68 12.24 4.13 12.61L4.13 12.61L4.13 12.61Q4.58 12.98 5.61 12.98ZM3.68 7.56L4.47 7.56L4.47 7.56Q4.90 7.56 5.19 7.55L5.19 7.55L5.19 7.55Q5.49 7.53 5.70 7.50L5.70 7.50L5.70 7.50Q5.91 7.46 6.07 7.40L6.07 7.40L6.07 7.40Q6.23 7.34 6.40 7.22L6.40 7.22L6.40 7.22Q6.85 6.94 7.04 6.55L7.04 6.55L7.04 6.55Q7.22 6.16 7.22 5.53L7.22 5.53L7.22 5.53Q7.22 4.42 6.69 3.94L6.69 3.94L6.69 3.94Q6.15 3.46 5.00 3.46L5.00 3.46L3.92 3.46L3.92 3.46Q3.68 3.46 3.68 3.70L3.68 3.70L3.68 7.56ZM15.62 10.54L15.62 9.44L15.62 9.44Q14.83 9.74 14.27 10.04L14.27 10.04L14.27 10.04Q13.72 10.33 13.38 10.63L13.38 10.63L13.38 10.63Q13.05 10.92 12.90 11.21L12.90 11.21L12.90 11.21Q12.75 11.51 12.75 11.82L12.75 11.82L12.75 11.82Q12.75 12.28 13.06 12.57L13.06 12.57L13.06 12.57Q13.37 12.87 13.87 12.87L13.87 12.87L13.87 12.87Q14.24 12.87 14.55 12.68L14.55 12.68L14.55 12.68Q14.87 12.50 15.11 12.19L15.11 12.19L15.11 12.19Q15.34 11.87 15.48 11.45L15.48 11.45L15.48 11.45Q15.62 11.02 15.62 10.54L15.62 10.54ZM13.61 9.72L15.62 8.83L15.62 8.26L15.62 8.26Q15.62 6.55 14.17 6.55L14.17 6.55L14.17 6.55Q13.93 6.55 13.76 6.59L13.76 6.59L13.76 6.59Q13.59 6.64 13.48 6.73L13.48 6.73L13.48 6.73Q13.37 6.83 13.28 7.01L13.28 7.01L13.28 7.01Q13.19 7.20 13.10 7.46L13.10 7.46L13.10 7.46Q12.95 7.87 12.80 8.00L12.80 8.00L12.80 8.00Q12.66 8.13 12.38 8.13L12.38 8.13L12.38 8.13Q11.68 8.13 11.68 7.43L11.68 7.43L11.68 7.43Q11.68 6.76 12.39 6.39L12.39 6.39L12.39 6.39Q13.10 6.02 14.42 6.02L14.42 6.02L14.42 6.02Q15.82 6.02 16.41 6.52L16.41 6.52L16.41 6.52Q17.00 7.01 17.00 8.20L17.00 8.20L17.00 11.34L17.00 11.34Q17.00 12.94 17.63 12.94L17.63 12.94L17.63 12.94Q17.82 12.94 18.00 12.89L18.00 12.89L18.00 12.89Q18.19 12.84 18.31 12.63L18.31 12.63L18.51 12.96L18.51 12.96Q18.34 13.29 17.89 13.50L17.89 13.50L17.89 13.50Q17.44 13.72 16.95 13.72L16.95 13.72L16.95 13.72Q16.34 13.72 16.04 13.33L16.04 13.33L16.04 13.33Q15.74 12.94 15.74 12.22L15.74 12.22L15.67 12.22L15.67 12.22Q15.30 12.91 14.66 13.31L14.66 13.31L14.66 13.31Q14.01 13.71 13.23 13.71L13.23 13.71L13.23 13.71Q12.35 13.71 11.84 13.26L11.84 13.26L11.84 13.26Q11.34 12.81 11.34 12.05L11.34 12.05L11.34 12.05Q11.34 11.72 11.46 11.41L11.46 11.41L11.46 11.41Q11.58 11.10 11.84 10.82L11.84 10.82L11.84 10.82Q12.11 10.54 12.54 10.27L12.54 10.27L12.54 10.27Q12.98 10.00 13.61 9.72L13.61 9.72ZM21.42 1.96L21.42 11.40L21.42 11.40Q21.42 11.93 21.46 12.25L21.46 12.25L21.46 12.25Q21.50 12.57 21.64 12.75L21.64 12.75L21.64 12.75Q21.77 12.94 22.02 13.01L22.02 13.01L22.02 13.01Q22.26 13.08 22.67 13.09L22.67 13.09L22.67 13.58L18.80 13.58L18.80 13.09L18.80 13.09Q19.22 13.08 19.47 13.00L19.47 13.00L19.47 13.00Q19.73 12.92 19.87 12.75L19.87 12.75L19.87 12.75Q20.02 12.59 20.07 12.29L20.07 12.29L20.07 12.29Q20.12 11.98 20.12 11.49L20.12 11.49L20.12 5.46L20.12 5.46Q20.12 4.70 20.10 4.19L20.10 4.19L20.10 4.19Q20.08 3.68 20.03 3.50L20.03 3.50L20.03 3.50Q19.96 3.18 19.70 3.07L19.70 3.07L19.70 3.07Q19.45 2.95 18.77 2.95L18.77 2.95L18.77 2.48L21.42 1.96ZM27.93 10.54L27.93 9.44L27.93 9.44Q27.13 9.74 26.58 10.04L26.58 10.04L26.58 10.04Q26.03 10.33 25.69 10.63L25.69 10.63L25.69 10.63Q25.35 10.92 25.21 11.21L25.21 11.21L25.21 11.21Q25.06 11.51 25.06 11.82L25.06 11.82L25.06 11.82Q25.06 12.28 25.37 12.57L25.37 12.57L25.37 12.57Q25.68 12.87 26.18 12.87L26.18 12.87L26.18 12.87Q26.54 12.87 26.86 12.68L26.86 12.68L26.86 12.68Q27.17 12.50 27.41 12.19L27.41 12.19L27.41 12.19Q27.65 11.87 27.79 11.45L27.79 11.45L27.79 11.45Q27.93 11.02 27.93 10.54L27.93 10.54ZM25.91 9.72L27.93 8.83L27.93 8.26L27.93 8.26Q27.93 6.55 26.47 6.55L26.47 6.55L26.47 6.55Q26.24 6.55 26.07 6.59L26.07 6.59L26.07 6.59Q25.90 6.64 25.79 6.73L25.79 6.73L25.79 6.73Q25.68 6.83 25.59 7.01L25.59 7.01L25.59 7.01Q25.49 7.20 25.41 7.46L25.41 7.46L25.41 7.46Q25.26 7.87 25.11 8.00L25.11 8.00L25.11 8.00Q24.96 8.13 24.68 8.13L24.68 8.13L24.68 8.13Q23.98 8.13 23.98 7.43L23.98 7.43L23.98 7.43Q23.98 6.76 24.70 6.39L24.70 6.39L24.70 6.39Q25.41 6.02 26.73 6.02L26.73 6.02L26.73 6.02Q28.13 6.02 28.71 6.52L28.71 6.52L28.71 6.52Q29.30 7.01 29.30 8.20L29.30 8.20L29.30 11.34L29.30 11.34Q29.30 12.94 29.93 12.94L29.93 12.94L29.93 12.94Q30.13 12.94 30.31 12.89L30.31 12.89L30.31 12.89Q30.49 12.84 30.62 12.63L30.62 12.63L30.81 12.96L30.81 12.96Q30.65 13.29 30.20 13.50L30.20 13.50L30.20 13.50Q29.75 13.72 29.26 13.72L29.26 13.72L29.26 13.72Q28.64 13.72 28.34 13.33L28.34 13.33L28.34 13.33Q28.04 12.94 28.04 12.22L28.04 12.22L27.97 12.22L27.97 12.22Q27.61 12.91 26.96 13.31L26.96 13.31L26.96 13.31Q26.32 13.71 25.54 13.71L25.54 13.71L25.54 13.71Q24.65 13.71 24.15 13.26L24.15 13.26L24.15 13.26Q23.65 12.81 23.65 12.05L23.65 12.05L23.65 12.05Q23.65 11.72 23.77 11.41L23.77 11.41L23.77 11.41Q23.88 11.10 24.15 10.82L24.15 10.82L24.15 10.82Q24.42 10.54 24.85 10.27L24.85 10.27L24.85 10.27Q25.28 10.00 25.91 9.72L25.91 9.72ZM34.34 13.73L31.98 7.90L31.98 7.90Q31.81 7.48 31.68 7.23L31.68 7.23L31.68 7.23Q31.54 6.99 31.39 6.86L31.39 6.86L31.39 6.86Q31.23 6.73 31.04 6.70L31.04 6.70L31.04 6.70Q30.86 6.66 30.59 6.65L30.59 6.65L30.59 6.16L34.30 6.16L34.30 6.65L34.30 6.65Q34.02 6.66 33.84 6.68L33.84 6.68L33.84 6.68Q33.66 6.69 33.55 6.74L33.55 6.74L33.55 6.74Q33.45 6.79 33.40 6.88L33.40 6.88L33.40 6.88Q33.36 6.97 33.36 7.14L33.36 7.14L33.36 7.14Q33.36 7.38 33.42 7.59L33.42 7.59L33.42 7.59Q33.49 7.80 33.56 8.01L33.56 8.01L35.04 12.07L35.10 12.07L36.37 9.06L36.37 9.06Q36.67 8.36 36.79 7.94L36.79 7.94L36.79 7.94Q36.92 7.52 36.92 7.20L36.92 7.20L36.92 7.20Q36.92 6.87 36.75 6.76L36.75 6.76L36.75 6.76Q36.58 6.65 36.02 6.65L36.02 6.65L36.02 6.16L38.81 6.16L38.81 6.65L38.81 6.65Q38.58 6.65 38.40 6.76L38.40 6.76L38.40 6.76Q38.22 6.87 38.08 7.04L38.08 7.04L38.08 7.04Q37.97 7.20 37.85 7.46L37.85 7.46L37.85 7.46Q37.73 7.71 37.61 7.99L37.61 7.99L37.61 7.99Q37.49 8.27 37.39 8.55L37.39 8.55L37.39 8.55Q37.30 8.82 37.21 8.99L37.21 8.99L35.15 13.73L34.34 13.73ZM42.25 6.02L42.25 11.35L42.25 11.35Q42.25 11.90 42.30 12.23L42.30 12.23L42.30 12.23Q42.35 12.56 42.49 12.75L42.49 12.75L42.49 12.75Q42.63 12.94 42.88 13.01L42.88 13.01L42.88 13.01Q43.13 13.08 43.55 13.09L43.55 13.09L43.55 13.58L39.54 13.58L39.54 13.09L39.54 13.09Q39.96 13.08 40.22 13.00L40.22 13.00L40.22 13.00Q40.49 12.92 40.64 12.75L40.64 12.75L40.64 12.75Q40.78 12.57 40.83 12.26L40.83 12.26L40.83 12.26Q40.88 11.94 40.88 11.45L40.88 11.45L40.88 9.66L40.88 9.66Q40.88 8.85 40.86 8.32L40.86 8.32L40.86 8.32Q40.84 7.80 40.78 7.60L40.78 7.60L40.78 7.60Q40.71 7.28 40.46 7.16L40.46 7.16L40.46 7.16Q40.21 7.04 39.51 7.04L39.51 7.04L39.51 6.55L42.25 6.02ZM40.64 3.18L40.64 3.18L40.64 3.18Q40.64 2.81 40.89 2.56L40.89 2.56L40.89 2.56Q41.15 2.31 41.51 2.31L41.51 2.31L41.51 2.31Q41.87 2.31 42.13 2.56L42.13 2.56L42.13 2.56Q42.38 2.81 42.38 3.18L42.38 3.18L42.38 3.18Q42.38 3.54 42.13 3.79L42.13 3.79L42.13 3.79Q41.87 4.05 41.51 4.05L41.51 4.05L41.51 4.05Q41.15 4.05 40.89 3.79L40.89 3.79L40.89 3.79Q40.64 3.54 40.64 3.18ZM47.59 13.73L45.22 7.90L45.22 7.90Q45.05 7.48 44.92 7.23L44.92 7.23L44.92 7.23Q44.79 6.99 44.63 6.86L44.63 6.86L44.63 6.86Q44.48 6.73 44.29 6.70L44.29 6.70L44.29 6.70Q44.10 6.66 43.83 6.65L43.83 6.65L43.83 6.16L47.54 6.16L47.54 6.65L47.54 6.65Q47.26 6.66 47.08 6.68L47.08 6.68L47.08 6.68Q46.90 6.69 46.80 6.74L46.80 6.74L46.80 6.74Q46.69 6.79 46.65 6.88L46.65 6.88L46.65 6.88Q46.61 6.97 46.61 7.14L46.61 7.14L46.61 7.14Q46.61 7.38 46.67 7.59L46.67 7.59L46.67 7.59Q46.73 7.80 46.80 8.01L46.80 8.01L48.29 12.07L48.34 12.07L49.62 9.06L49.62 9.06Q49.91 8.36 50.04 7.94L50.04 7.94L50.04 7.94Q50.16 7.52 50.16 7.20L50.16 7.20L50.16 7.20Q50.16 6.87 49.99 6.76L49.99 6.76L49.99 6.76Q49.83 6.65 49.27 6.65L49.27 6.65L49.27 6.16L52.05 6.16L52.05 6.65L52.05 6.65Q51.83 6.65 51.65 6.76L51.65 6.76L51.65 6.76Q51.46 6.87 51.32 7.04L51.32 7.04L51.32 7.04Q51.21 7.20 51.09 7.46L51.09 7.46L51.09 7.46Q50.97 7.71 50.86 7.99L50.86 7.99L50.86 7.99Q50.74 8.27 50.64 8.55L50.64 8.55L50.64 8.55Q50.54 8.82 50.46 8.99L50.46 8.99L48.40 13.73L47.59 13.73ZM58.87 11.89L59.30 12.28L59.30 12.28Q58.11 13.72 56.35 13.72L56.35 13.72L56.35 13.72Q55.52 13.72 54.85 13.45L54.85 13.45L54.85 13.45Q54.18 13.17 53.70 12.68L53.70 12.68L53.70 12.68Q53.21 12.18 52.95 11.49L52.95 11.49L52.95 11.49Q52.68 10.79 52.68 9.95L52.68 9.95L52.68 9.95Q52.68 9.10 52.96 8.37L52.96 8.37L52.96 8.37Q53.24 7.64 53.75 7.13L53.75 7.13L53.75 7.13Q54.26 6.61 54.97 6.31L54.97 6.31L54.97 6.31Q55.68 6.02 56.52 6.02L56.52 6.02L56.52 6.02Q57.88 6.02 58.62 6.75L58.62 6.75L58.62 6.75Q59.36 7.49 59.36 8.86L59.36 8.86L59.36 8.86Q59.36 9.06 59.28 9.10L59.28 9.10L59.28 9.10Q59.21 9.14 58.93 9.14L58.93 9.14L54.32 9.14L54.32 9.14Q54.29 9.25 54.28 9.41L54.28 9.41L54.28 9.41Q54.26 9.58 54.26 9.77L54.26 9.77L54.26 9.77Q54.26 10.50 54.44 11.10L54.44 11.10L54.44 11.10Q54.61 11.69 54.94 12.11L54.94 12.11L54.94 12.11Q55.27 12.53 55.73 12.76L55.73 12.76L55.73 12.76Q56.18 12.99 56.74 12.99L56.74 12.99L56.74 12.99Q57.33 12.99 57.83 12.73L57.83 12.73L57.83 12.73Q58.34 12.47 58.87 11.89L58.87 11.89ZM54.42 8.50L56.99 8.50L56.99 8.50Q57.27 8.50 57.44 8.48L57.44 8.48L57.44 8.48Q57.61 8.47 57.69 8.43L57.69 8.43L57.69 8.43Q57.78 8.39 57.81 8.31L57.81 8.31L57.81 8.31Q57.83 8.23 57.83 8.11L57.83 8.11L57.83 8.11Q57.83 7.46 57.42 7.08L57.42 7.08L57.42 7.08Q57.01 6.69 56.29 6.69L56.29 6.69L56.29 6.69Q54.78 6.69 54.42 8.50L54.42 8.50ZM64.89 13.58L64.89 13.09L64.89 13.09Q65.35 13.09 65.53 13.05L65.53 13.05L65.53 13.05Q65.70 13.01 65.70 12.94L65.70 12.94L65.70 12.94Q65.69 12.82 65.48 12.53L65.48 12.53L65.48 12.53Q65.27 12.24 64.93 11.83L64.93 11.83L63.45 10.04L62.93 10.53L62.93 11.35L62.93 11.35Q62.93 11.90 62.98 12.23L62.98 12.23L62.98 12.23Q63.03 12.56 63.16 12.75L63.16 12.75L63.16 12.75Q63.29 12.94 63.55 13.01L63.55 13.01L63.55 13.01Q63.81 13.08 64.23 13.09L64.23 13.09L64.23 13.58L60.26 13.58L60.26 13.09L60.26 13.09Q60.68 13.08 60.94 13.01L60.94 13.01L60.94 13.01Q61.19 12.94 61.34 12.75L61.34 12.75L61.34 12.75Q61.49 12.57 61.54 12.26L61.54 12.26L61.54 12.26Q61.60 11.96 61.60 11.45L61.60 11.45L61.60 5.59L61.60 5.59Q61.60 4.52 61.58 3.98L61.58 3.98L61.58 3.98Q61.56 3.43 61.43 3.23L61.43 3.23L61.43 3.23Q61.31 3.04 61.01 3.00L61.01 3.00L61.01 3.00Q60.72 2.97 60.23 2.97L60.23 2.97L60.23 2.49L62.93 1.96L62.93 9.65L64.23 8.37L64.23 8.37Q64.86 7.74 65.17 7.44L65.17 7.44L65.17 7.44Q65.48 7.14 65.48 6.99L65.48 6.99L65.48 6.99Q65.48 6.83 65.18 6.74L65.18 6.74L65.18 6.74Q64.89 6.65 64.34 6.65L64.34 6.65L64.34 6.16L67.98 6.16L67.98 6.65L67.98 6.65Q67.72 6.65 67.52 6.68L67.52 6.68L67.52 6.68Q67.33 6.71 67.15 6.79L67.15 6.79L67.15 6.79Q66.98 6.87 66.78 7.02L66.78 7.02L66.78 7.02Q66.58 7.17 66.33 7.39L66.33 7.39L64.32 9.18L67.09 12.32L67.09 12.32Q67.28 12.56 67.45 12.71L67.45 12.71L67.45 12.71Q67.61 12.85 67.77 12.94L67.77 12.94L67.77 12.94Q67.93 13.02 68.12 13.05L68.12 13.05L68.12 13.05Q68.31 13.09 68.57 13.09L68.57 13.09L68.57 13.58L64.89 13.58Z"></path></g><linearGradient data-v-d3f97b9e="" gradientTransform="rotate(25)" id="438b9b9b-b43b-4ed4-8b59-bae30f78c099" x1="0%" y1="0%" x2="100%" y2="0%"><stop data-v-d3f97b9e="" offset="0%" style="stop-color: rgb(233, 13, 218); stop-opacity: 1;"></stop><stop data-v-d3f97b9e="" offset="100%" style="stop-color: rgb(21, 207, 241); stop-opacity: 1;"></stop></linearGradient><g data-v-d3f97b9e="" id="0e8dc672-270e-4752-b621-87d7dbd4e165" transform="matrix(1.0892279730902779,0,0,1.0892279730902779,-3.2366885849533418,-0.4782958410224367)" stroke="none" fill="url(#438b9b9b-b43b-4ed4-8b59-bae30f78c099)"><path d="M96.72 6.84a5.27 5.27 0 0 0-1.49-4.47 4.91 4.91 0 0 0-4-1.33C61.11 4.7 43.86 18.19 34 31.47l-4.61-.24a11.86 11.86 0 0 0-9 3.46l-7.2 7.2a.75.75 0 0 0 .24 1.22l11.48 4.76a66.25 66.25 0 0 0-3.09 10.06 3.72 3.72 0 0 0 1 3.42l13.62 13.58a3.72 3.72 0 0 0 3.42 1 66.32 66.32 0 0 0 10.06-3.09l4.76 11.48a.75.75 0 0 0 1.22.24l7.2-7.2a11.87 11.87 0 0 0 3.46-9l-.24-4.61C79.57 54 93 36.78 96.72 6.84zm-38 41.35a6.45 6.45 0 1 1 0-9.12 6.45 6.45 0 0 1 .01 9.11zm4-13.08a8.49 8.49 0 1 1 12 0 8.49 8.49 0 0 1-12.03-.01zM10.9 77.39a12.45 12.45 0 0 0-6.28-.5 1.14 1.14 0 0 1-1-.31 1.15 1.15 0 0 1-.24-1.3c2.18-4.83 8.18-14.54 18.93-6.7a.54.54 0 0 1 0 .8A11.71 11.71 0 0 0 17.83 79a.85.85 0 0 0 .82.82 11.71 11.71 0 0 0 9.6-4.37.54.54 0 0 1 .83 0c1.5 1.79 5.62 7.6 1.06 13.22a11.86 11.86 0 0 1-8 4.2c-4.45.49-12.63 1.89-16 5.74a1.15 1.15 0 0 1-2-.42C3 94.15 1.21 85.15 10.9 77.39z"></path></g><!----></svg>